<?xml version="1.0" encoding="UTF-8" standalone="no"?>
<svg
   xmlns:dc="http://purl.org/dc/elements/1.1/"
   xmlns:cc="http://creativecommons.org/ns#"
   xmlns:rdf="http://www.w3.org/1999/02/22-rdf-syntax-ns#"
   xmlns:svg="http://www.w3.org/2000/svg"
   xmlns="http://www.w3.org/2000/svg"
   style="enable-background:new"
   id="svg8"
   version="1.1"
   viewBox="0 0 26.870804 9.9375"
   height="9.9375mm"
   width="26.870804mm">
  <defs
     id="defs2">
    <clipPath
       id="clipPath5342"
       clipPathUnits="userSpaceOnUse">
      <flowRoot
         transform="matrix(0.26458333,0,0,0.26458333,8.8198944,-0.48442602)"
         style="font-style:normal;font-weight:normal;font-size:40px;line-height:1.25;font-family:sans-serif;letter-spacing:0px;word-spacing:0px;fill:#000000;fill-opacity:1;stroke:none"
         id="flowRoot5358"
         xml:space="preserve"><flowRegion
           id="flowRegion5346"><rect
             y="316.41797"
             x="5.0507627"
             height="257.5889"
             width="783.87836"
             id="rect5344" /></flowRegion><flowPara
           style="font-style:italic;font-variant:normal;font-weight:bold;font-stretch:normal;font-size:40px;font-family:Futura;-inkscape-font-specification:'Futura, Bold Italic';font-variant-ligatures:normal;font-variant-caps:normal;font-variant-numeric:normal;font-feature-settings:normal;text-align:start;letter-spacing:-3px;writing-mode:lr-tb;direction:ltr;text-anchor:start"
           id="flowPara5356"><flowSpan
             id="flowSpan5348"
             style="direction:ltr;fill:#bb72fa;fill-opacity:1">C</flowSpan><flowSpan
             id="flowSpan5350"
             style="direction:ltr;fill:#8d6bf2;fill-opacity:1">R</flowSpan><flowSpan
             id="flowSpan5352"
             style="direction:ltr;fill:#6865ef;fill-opacity:1">A</flowSpan><flowSpan
             id="flowSpan5354"
             style="direction:ltr;fill:#4a64ed;fill-opacity:1">B</flowSpan></flowPara></flowRoot>    </clipPath>
    <clipPath
       id="clipPath1007"
       clipPathUnits="userSpaceOnUse">
      <text
         id="text1019"
         y="92.774414"
         x="10.156247"
         style="font-style:italic;font-variant:normal;font-weight:bold;font-stretch:normal;font-size:10.58333302px;line-height:1.25;font-family:Futura;-inkscape-font-specification:'Futura, Bold Italic';font-variant-ligatures:normal;font-variant-caps:normal;font-variant-numeric:normal;font-feature-settings:normal;text-align:start;letter-spacing:0px;word-spacing:0px;writing-mode:lr-tb;text-anchor:start;fill:#000000;fill-opacity:1;stroke:none;stroke-width:0.26458332"
         xml:space="preserve"><tspan
           style="font-style:italic;font-variant:normal;font-weight:bold;font-stretch:normal;font-size:10.58333302px;font-family:Futura;-inkscape-font-specification:'Futura, Bold Italic';font-variant-ligatures:normal;font-variant-caps:normal;font-variant-numeric:normal;font-feature-settings:normal;text-align:start;writing-mode:lr-tb;text-anchor:start;stroke-width:0.26458332"
           id="tspan1017"
           y="92.774414"
           x="29.216801"><tspan
             id="tspan1009"
             style="font-style:italic;font-variant:normal;font-weight:bold;font-stretch:normal;font-size:10.58333302px;font-family:Futura;-inkscape-font-specification:'Futura, Bold Italic';font-variant-ligatures:normal;font-variant-caps:normal;font-variant-numeric:normal;font-feature-settings:normal;text-align:start;writing-mode:lr-tb;direction:ltr;text-anchor:start;fill:#bb72fa;fill-opacity:1;stroke-width:0.26458332"
             y="92.774414"
             x="10.156247">C</tspan><tspan
             id="tspan1011"
             style="font-style:italic;font-variant:normal;font-weight:bold;font-stretch:normal;font-size:10.58333302px;font-family:Futura;-inkscape-font-specification:'Futura, Bold Italic';font-variant-ligatures:normal;font-variant-caps:normal;font-variant-numeric:normal;font-feature-settings:normal;text-align:start;writing-mode:lr-tb;direction:ltr;text-anchor:start;fill:#8d6bf2;fill-opacity:1;stroke-width:0.26458332"
             y="92.774414"
             x="16.273413">R</tspan><tspan
             id="tspan1013"
             style="font-style:italic;font-variant:normal;font-weight:bold;font-stretch:normal;font-size:10.58333302px;font-family:Futura;-inkscape-font-specification:'Futura, Bold Italic';font-variant-ligatures:normal;font-variant-caps:normal;font-variant-numeric:normal;font-feature-settings:normal;text-align:start;writing-mode:lr-tb;direction:ltr;text-anchor:start;fill:#6865ef;fill-opacity:1;stroke-width:0.26458332"
             y="92.774414"
             x="22.485815">A</tspan><tspan
             id="tspan1015"
             style="font-style:italic;font-variant:normal;font-weight:bold;font-stretch:normal;font-size:10.58333302px;font-family:Futura;-inkscape-font-specification:'Futura, Bold Italic';font-variant-ligatures:normal;font-variant-caps:normal;font-variant-numeric:normal;font-feature-settings:normal;text-align:start;writing-mode:lr-tb;direction:ltr;text-anchor:start;fill:#4a64ed;fill-opacity:1;stroke-width:0.26458332"
             y="92.774414"
             x="29.216801">B</tspan></tspan></text>
    </clipPath>
    <clipPath
       id="clipPath1205"
       clipPathUnits="userSpaceOnUse">
      <g
         transform="translate(9.7916669e-8,-1.1041667e-6)"
         aria-label="CRAB"
         style="font-style:italic;font-variant:normal;font-weight:bold;font-stretch:normal;font-size:10.58333302px;line-height:1.25;font-family:Futura;-inkscape-font-specification:'Futura, Bold Italic';font-variant-ligatures:normal;font-variant-caps:normal;font-variant-numeric:normal;font-feature-settings:normal;text-align:start;letter-spacing:0px;word-spacing:0px;writing-mode:lr-tb;text-anchor:start;fill:#000000;fill-opacity:1;stroke:none;stroke-width:0.26458332"
         id="g1215">
        <path
           d="m 17.18358,85.567164 c -0.624416,-0.3175 -1.36525,-0.53975 -2.264833,-0.53975 -1.418167,0 -2.57175,0.508 -3.323167,1.42875 -0.635,0.783167 -0.98425,1.767417 -0.98425,2.846917 0,2.19075 1.386417,3.661833 3.566584,3.661833 0.719666,0 1.344083,-0.08467 1.862666,-0.254 l 0.3175,-1.957917 c -0.60325,0.254 -1.164166,0.391584 -1.725083,0.391584 -1.259417,0 -1.957917,-0.709084 -1.957917,-1.926167 0,-1.36525 0.910167,-2.328333 2.159,-2.328333 0.719667,0 1.418167,0.254 2.010834,0.762 z"
           style="font-style:italic;font-variant:normal;font-weight:bold;font-stretch:normal;font-size:10.58333302px;font-family:Futura;-inkscape-font-specification:'Futura, Bold Italic';font-variant-ligatures:normal;font-variant-caps:normal;font-variant-numeric:normal;font-feature-settings:normal;text-align:start;writing-mode:lr-tb;direction:ltr;text-anchor:start;fill:#bb72fa;fill-opacity:1;stroke-width:0.26458332"
           id="path1207" />
        <path
           d="m 19.141496,88.668081 0.3175,-1.989667 h 0.296333 c 0.846667,0 1.259417,0.254 1.259417,0.92075 0,0.687917 -0.433917,1.068917 -1.23825,1.068917 z m -0.645583,4.106333 0.455083,-2.88925 1.4605,2.88925 h 2.307167 l -1.8415,-2.9845 c 1.3335,-0.22225 2.106083,-1.132416 2.106083,-2.370666 0,-0.910167 -0.402167,-1.566334 -1.164167,-1.926167 -0.560916,-0.264583 -1.248833,-0.28575 -2.12725,-0.28575 h -2.010833 l -1.195917,7.567083 z"
           style="font-style:italic;font-variant:normal;font-weight:bold;font-stretch:normal;font-size:10.58333302px;font-family:Futura;-inkscape-font-specification:'Futura, Bold Italic';font-variant-ligatures:normal;font-variant-caps:normal;font-variant-numeric:normal;font-feature-settings:normal;text-align:start;writing-mode:lr-tb;direction:ltr;text-anchor:start;fill:#8d6bf2;fill-opacity:1;stroke-width:0.26458332"
           id="path1209" />
        <path
           d="m 25.565565,89.662914 0.804333,-1.735666 c 0.05292,-0.116417 0.169334,-0.41275 0.338667,-0.889 0.01058,0.28575 0.05292,0.5715 0.105833,0.85725 l 0.34925,1.767416 z m -3.683,3.1115 h 2.201333 l 0.719667,-1.42875 h 2.645833 l 0.306917,1.42875 h 2.053166 l -1.608666,-7.567083 h -2.529417 z"
           style="font-style:italic;font-variant:normal;font-weight:bold;font-stretch:normal;font-size:10.58333302px;font-family:Futura;-inkscape-font-specification:'Futura, Bold Italic';font-variant-ligatures:normal;font-variant-caps:normal;font-variant-numeric:normal;font-feature-settings:normal;text-align:start;writing-mode:lr-tb;direction:ltr;text-anchor:start;fill:#6865ef;fill-opacity:1;stroke-width:0.26458332"
           id="path1211" />
        <path
           d="m 32.116634,88.138914 0.22225,-1.481666 h 0.28575 c 0.635,0 0.941917,0.179916 0.941917,0.635 0,0.6985 -0.4445,0.846666 -1.280584,0.846666 z m -0.497417,3.153833 0.275167,-1.767416 h 0.359833 c 0.772584,0 1.132417,0.179916 1.132417,0.762 0,0.889 -0.518583,1.005416 -1.524,1.005416 z m 2.264834,-2.455333 c 0.994833,-0.137583 1.598083,-0.836083 1.598083,-1.830916 0,-0.719667 -0.391583,-1.3335 -1.026583,-1.5875 -0.497417,-0.201084 -1.185334,-0.211667 -2.116667,-0.211667 h -1.7145 l -1.2065,7.567083 h 2.497667 c 1.11125,0 1.915583,-0.02117 2.487083,-0.381 0.592667,-0.370417 0.963083,-1.058333 0.963083,-1.8415 0,-0.931333 -0.518583,-1.534583 -1.481666,-1.7145 z"
           style="font-style:italic;font-variant:normal;font-weight:bold;font-stretch:normal;font-size:10.58333302px;font-family:Futura;-inkscape-font-specification:'Futura, Bold Italic';font-variant-ligatures:normal;font-variant-caps:normal;font-variant-numeric:normal;font-feature-settings:normal;text-align:start;writing-mode:lr-tb;direction:ltr;text-anchor:start;fill:#4a64ed;fill-opacity:1;stroke-width:0.26458332"
           id="path1213" />
      </g>
    </clipPath>
    <clipPath
       id="clipPath1346"
       clipPathUnits="userSpaceOnUse">
      <g
         transform="translate(9.7916669e-8,-1.1041667e-6)"
         aria-label="CRAB"
         style="font-style:italic;font-variant:normal;font-weight:bold;font-stretch:normal;font-size:10.58333302px;line-height:1.25;font-family:Futura;-inkscape-font-specification:'Futura, Bold Italic';font-variant-ligatures:normal;font-variant-caps:normal;font-variant-numeric:normal;font-feature-settings:normal;text-align:start;letter-spacing:0px;word-spacing:0px;writing-mode:lr-tb;text-anchor:start;fill:#000000;fill-opacity:1;stroke:none;stroke-width:0.26458332"
         id="g1356">
        <path
           d="m 17.18358,85.567164 c -0.624416,-0.3175 -1.36525,-0.53975 -2.264833,-0.53975 -1.418167,0 -2.57175,0.508 -3.323167,1.42875 -0.635,0.783167 -0.98425,1.767417 -0.98425,2.846917 0,2.19075 1.386417,3.661833 3.566584,3.661833 0.719666,0 1.344083,-0.08467 1.862666,-0.254 l 0.3175,-1.957917 c -0.60325,0.254 -1.164166,0.391584 -1.725083,0.391584 -1.259417,0 -1.957917,-0.709084 -1.957917,-1.926167 0,-1.36525 0.910167,-2.328333 2.159,-2.328333 0.719667,0 1.418167,0.254 2.010834,0.762 z"
           style="font-style:italic;font-variant:normal;font-weight:bold;font-stretch:normal;font-size:10.58333302px;font-family:Futura;-inkscape-font-specification:'Futura, Bold Italic';font-variant-ligatures:normal;font-variant-caps:normal;font-variant-numeric:normal;font-feature-settings:normal;text-align:start;writing-mode:lr-tb;direction:ltr;text-anchor:start;fill:#bb72fa;fill-opacity:1;stroke-width:0.26458332"
           id="path1348" />
        <path
           d="m 19.141496,88.668081 0.3175,-1.989667 h 0.296333 c 0.846667,0 1.259417,0.254 1.259417,0.92075 0,0.687917 -0.433917,1.068917 -1.23825,1.068917 z m -0.645583,4.106333 0.455083,-2.88925 1.4605,2.88925 h 2.307167 l -1.8415,-2.9845 c 1.3335,-0.22225 2.106083,-1.132416 2.106083,-2.370666 0,-0.910167 -0.402167,-1.566334 -1.164167,-1.926167 -0.560916,-0.264583 -1.248833,-0.28575 -2.12725,-0.28575 h -2.010833 l -1.195917,7.567083 z"
           style="font-style:italic;font-variant:normal;font-weight:bold;font-stretch:normal;font-size:10.58333302px;font-family:Futura;-inkscape-font-specification:'Futura, Bold Italic';font-variant-ligatures:normal;font-variant-caps:normal;font-variant-numeric:normal;font-feature-settings:normal;text-align:start;writing-mode:lr-tb;direction:ltr;text-anchor:start;fill:#8d6bf2;fill-opacity:1;stroke-width:0.26458332"
           id="path1350" />
        <path
           d="m 25.565565,89.662914 0.804333,-1.735666 c 0.05292,-0.116417 0.169334,-0.41275 0.338667,-0.889 0.01058,0.28575 0.05292,0.5715 0.105833,0.85725 l 0.34925,1.767416 z m -3.683,3.1115 h 2.201333 l 0.719667,-1.42875 h 2.645833 l 0.306917,1.42875 h 2.053166 l -1.608666,-7.567083 h -2.529417 z"
           style="font-style:italic;font-variant:normal;font-weight:bold;font-stretch:normal;font-size:10.58333302px;font-family:Futura;-inkscape-font-specification:'Futura, Bold Italic';font-variant-ligatures:normal;font-variant-caps:normal;font-variant-numeric:normal;font-feature-settings:normal;text-align:start;writing-mode:lr-tb;direction:ltr;text-anchor:start;fill:#6865ef;fill-opacity:1;stroke-width:0.26458332"
           id="path1352" />
        <path
           d="m 32.116634,88.138914 0.22225,-1.481666 h 0.28575 c 0.635,0 0.941917,0.179916 0.941917,0.635 0,0.6985 -0.4445,0.846666 -1.280584,0.846666 z m -0.497417,3.153833 0.275167,-1.767416 h 0.359833 c 0.772584,0 1.132417,0.179916 1.132417,0.762 0,0.889 -0.518583,1.005416 -1.524,1.005416 z m 2.264834,-2.455333 c 0.994833,-0.137583 1.598083,-0.836083 1.598083,-1.830916 0,-0.719667 -0.391583,-1.3335 -1.026583,-1.5875 -0.497417,-0.201084 -1.185334,-0.211667 -2.116667,-0.211667 h -1.7145 l -1.2065,7.567083 h 2.497667 c 1.11125,0 1.915583,-0.02117 2.487083,-0.381 0.592667,-0.370417 0.963083,-1.058333 0.963083,-1.8415 0,-0.931333 -0.518583,-1.534583 -1.481666,-1.7145 z"
           style="font-style:italic;font-variant:normal;font-weight:bold;font-stretch:normal;font-size:10.58333302px;font-family:Futura;-inkscape-font-specification:'Futura, Bold Italic';font-variant-ligatures:normal;font-variant-caps:normal;font-variant-numeric:normal;font-feature-settings:normal;text-align:start;writing-mode:lr-tb;direction:ltr;text-anchor:start;fill:#4a64ed;fill-opacity:1;stroke-width:0.26458332"
           id="path1354" />
      </g>
    </clipPath>
  </defs>
  <metadata
     id="metadata5">
    <rdf:RDF>
      <cc:Work
         rdf:about="">
        <dc:format>image/svg+xml</dc:format>
        <dc:type
           rdf:resource="http://purl.org/dc/dcmitype/StillImage" />
        <dc:title></dc:title>
      </cc:Work>
    </rdf:RDF>
  </metadata>
  <g
     transform="translate(-9.6113302,-84.027419)"
     id="g1005"
     style="display:none">
    <text
       xml:space="preserve"
       style="font-style:italic;font-variant:normal;font-weight:bold;font-stretch:normal;font-size:10.58333302px;line-height:1.25;font-family:Futura;-inkscape-font-specification:'Futura, Bold Italic';font-variant-ligatures:normal;font-variant-caps:normal;font-variant-numeric:normal;font-feature-settings:normal;text-align:start;letter-spacing:0px;word-spacing:0px;writing-mode:lr-tb;text-anchor:start;fill:#000000;fill-opacity:1;stroke:none;stroke-width:0.26458332"
       x="10.156247"
       y="92.774414"
       id="text1003"><tspan
         x="29.216801"
         y="92.774414"
         id="tspan1001"
         style="font-style:italic;font-variant:normal;font-weight:bold;font-stretch:normal;font-size:10.58333302px;font-family:Futura;-inkscape-font-specification:'Futura, Bold Italic';font-variant-ligatures:normal;font-variant-caps:normal;font-variant-numeric:normal;font-feature-settings:normal;text-align:start;writing-mode:lr-tb;text-anchor:start;stroke-width:0.26458332"><tspan
           x="10.156247"
           y="92.774414"
           style="font-style:italic;font-variant:normal;font-weight:bold;font-stretch:normal;font-size:10.58333302px;font-family:Futura;-inkscape-font-specification:'Futura, Bold Italic';font-variant-ligatures:normal;font-variant-caps:normal;font-variant-numeric:normal;font-feature-settings:normal;text-align:start;writing-mode:lr-tb;direction:ltr;text-anchor:start;fill:#bb72fa;fill-opacity:1;stroke-width:0.26458332"
           id="tspan993">C</tspan><tspan
           x="16.273413"
           y="92.774414"
           style="font-style:italic;font-variant:normal;font-weight:bold;font-stretch:normal;font-size:10.58333302px;font-family:Futura;-inkscape-font-specification:'Futura, Bold Italic';font-variant-ligatures:normal;font-variant-caps:normal;font-variant-numeric:normal;font-feature-settings:normal;text-align:start;writing-mode:lr-tb;direction:ltr;text-anchor:start;fill:#8d6bf2;fill-opacity:1;stroke-width:0.26458332"
           id="tspan995">R</tspan><tspan
           x="22.485815"
           y="92.774414"
           style="font-style:italic;font-variant:normal;font-weight:bold;font-stretch:normal;font-size:10.58333302px;font-family:Futura;-inkscape-font-specification:'Futura, Bold Italic';font-variant-ligatures:normal;font-variant-caps:normal;font-variant-numeric:normal;font-feature-settings:normal;text-align:start;writing-mode:lr-tb;direction:ltr;text-anchor:start;fill:#6865ef;fill-opacity:1;stroke-width:0.26458332"
           id="tspan997">A</tspan><tspan
           x="29.216801"
           y="92.774414"
           style="font-style:italic;font-variant:normal;font-weight:bold;font-stretch:normal;font-size:10.58333302px;font-family:Futura;-inkscape-font-specification:'Futura, Bold Italic';font-variant-ligatures:normal;font-variant-caps:normal;font-variant-numeric:normal;font-feature-settings:normal;text-align:start;writing-mode:lr-tb;direction:ltr;text-anchor:start;fill:#4a64ed;fill-opacity:1;stroke-width:0.26458332"
           id="tspan999">B</tspan></tspan></text>
  </g>
  <g
     transform="translate(-9.6113302,-84.027419)"
     id="g969"
     style="display:none">
    <circle
       style="display:inline;opacity:1;fill:#ffc6ff;fill-opacity:1;stroke:#ff52ff;stroke-width:1.30674529;stroke-miterlimit:4;stroke-dasharray:none;stroke-opacity:1"
       id="circle967"
       cx="25.079462"
       cy="88.077789"
       r="3.1619875" />
  </g>
  <g
     style="display:inline"
     id="g1315"
     transform="translate(-9.6113302,-84.027419)">
    <g
       id="text1313"
       style="font-style:italic;font-variant:normal;font-weight:bold;font-stretch:normal;font-size:10.58333302px;line-height:1.25;font-family:Futura;-inkscape-font-specification:'Futura, Bold Italic';font-variant-ligatures:normal;font-variant-caps:normal;font-variant-numeric:normal;font-feature-settings:normal;text-align:start;letter-spacing:0px;word-spacing:0px;writing-mode:lr-tb;text-anchor:start;fill:#000000;fill-opacity:1;stroke:none;stroke-width:0.26458332"
       aria-label="CRAB">
      <path
         id="path1321"
         style="font-style:italic;font-variant:normal;font-weight:bold;font-stretch:normal;font-size:10.58333302px;font-family:Futura;-inkscape-font-specification:'Futura, Bold Italic';font-variant-ligatures:normal;font-variant-caps:normal;font-variant-numeric:normal;font-feature-settings:normal;text-align:start;writing-mode:lr-tb;direction:ltr;text-anchor:start;fill:#bb72fa;fill-opacity:1;stroke-width:0.26458332"
         d="m 17.18358,85.567164 c -0.624416,-0.3175 -1.36525,-0.53975 -2.264833,-0.53975 -1.418167,0 -2.57175,0.508 -3.323167,1.42875 -0.635,0.783167 -0.98425,1.767417 -0.98425,2.846917 0,2.19075 1.386417,3.661833 3.566584,3.661833 0.719666,0 1.344083,-0.08467 1.862666,-0.254 l 0.3175,-1.957917 c -0.60325,0.254 -1.164166,0.391584 -1.725083,0.391584 -1.259417,0 -1.957917,-0.709084 -1.957917,-1.926167 0,-1.36525 0.910167,-2.328333 2.159,-2.328333 0.719667,0 1.418167,0.254 2.010834,0.762 z" />
      <path
         id="path1323"
         style="font-style:italic;font-variant:normal;font-weight:bold;font-stretch:normal;font-size:10.58333302px;font-family:Futura;-inkscape-font-specification:'Futura, Bold Italic';font-variant-ligatures:normal;font-variant-caps:normal;font-variant-numeric:normal;font-feature-settings:normal;text-align:start;writing-mode:lr-tb;direction:ltr;text-anchor:start;fill:#8d6bf2;fill-opacity:1;stroke-width:0.26458332"
         d="m 19.141496,88.668081 0.3175,-1.989667 h 0.296333 c 0.846667,0 1.259417,0.254 1.259417,0.92075 0,0.687917 -0.433917,1.068917 -1.23825,1.068917 z m -0.645583,4.106333 0.455083,-2.88925 1.4605,2.88925 h 2.307167 l -1.8415,-2.9845 c 1.3335,-0.22225 2.106083,-1.132416 2.106083,-2.370666 0,-0.910167 -0.402167,-1.566334 -1.164167,-1.926167 -0.560916,-0.264583 -1.248833,-0.28575 -2.12725,-0.28575 h -2.010833 l -1.195917,7.567083 z" />
      <path
         id="path1325"
         style="font-style:italic;font-variant:normal;font-weight:bold;font-stretch:normal;font-size:10.58333302px;font-family:Futura;-inkscape-font-specification:'Futura, Bold Italic';font-variant-ligatures:normal;font-variant-caps:normal;font-variant-numeric:normal;font-feature-settings:normal;text-align:start;writing-mode:lr-tb;direction:ltr;text-anchor:start;fill:#6865ef;fill-opacity:1;stroke-width:0.26458332"
         d="m 25.565565,89.662914 0.804333,-1.735666 c 0.05292,-0.116417 0.169334,-0.41275 0.338667,-0.889 0.01058,0.28575 0.05292,0.5715 0.105833,0.85725 l 0.34925,1.767416 z m -3.683,3.1115 h 2.201333 l 0.719667,-1.42875 h 2.645833 l 0.306917,1.42875 h 2.053166 l -1.608666,-7.567083 h -2.529417 z" />
      <path
         id="path1327"
         style="font-style:italic;font-variant:normal;font-weight:bold;font-stretch:normal;font-size:10.58333302px;font-family:Futura;-inkscape-font-specification:'Futura, Bold Italic';font-variant-ligatures:normal;font-variant-caps:normal;font-variant-numeric:normal;font-feature-settings:normal;text-align:start;writing-mode:lr-tb;direction:ltr;text-anchor:start;fill:#4a64ed;fill-opacity:1;stroke-width:0.26458332"
         d="m 32.116634,88.138914 0.22225,-1.481666 h 0.28575 c 0.635,0 0.941917,0.179916 0.941917,0.635 0,0.6985 -0.4445,0.846666 -1.280584,0.846666 z m -0.497417,3.153833 0.275167,-1.767416 h 0.359833 c 0.772584,0 1.132417,0.179916 1.132417,0.762 0,0.889 -0.518583,1.005416 -1.524,1.005416 z m 2.264834,-2.455333 c 0.994833,-0.137583 1.598083,-0.836083 1.598083,-1.830916 0,-0.719667 -0.391583,-1.3335 -1.026583,-1.5875 -0.497417,-0.201084 -1.185334,-0.211667 -2.116667,-0.211667 h -1.7145 l -1.2065,7.567083 h 2.497667 c 1.11125,0 1.915583,-0.02117 2.487083,-0.381 0.592667,-0.370417 0.963083,-1.058333 0.963083,-1.8415 0,-0.931333 -0.518583,-1.534583 -1.481666,-1.7145 z" />
    </g>
  </g>
  <g
     style="display:none"
     id="g1319"
     transform="translate(-9.6113302,-84.027419)">
    <circle
       r="3.1619875"
       cy="88.077789"
       cx="25.079462"
       id="circle1317"
       style="display:inline;opacity:1;fill:#ffc6ff;fill-opacity:1;stroke:#ff52ff;stroke-width:1.30674529;stroke-miterlimit:4;stroke-dasharray:none;stroke-opacity:1" />
  </g>
  <g
     transform="translate(-9.6113302,-84.027419)"
     id="g1344"
     style="display:inline;opacity:0.25">
    <circle
       clip-path="url(#clipPath1346)"
       style="display:inline;opacity:1;fill:#ffc6ff;fill-opacity:1;stroke:#ff52ff;stroke-width:1.30674529;stroke-miterlimit:4;stroke-dasharray:none;stroke-opacity:1"
       id="circle1342"
       cx="25.079462"
       cy="88.077789"
       r="3.1619875" />
  </g>
  <g
     transform="translate(-9.6113302,-84.027419)"
     id="g1340"
     style="display:none" />
</svg>
